<?xml version="1.0" encoding="utf-8"?>
<!-- Generator: Adobe Illustrator 19.0.0, SVG Export Plug-In . SVG Version: 6.00 Build 0)  -->
<svg version="1.1" id="Ebene_1" xmlns="http://www.w3.org/2000/svg" xmlns:xlink="http://www.w3.org/1999/xlink" x="0px" y="0px"
     width="322.1px" height="278.5px" viewBox="0 0 322.1 278.5" style="enable-background:new 0 0 322.1 278.5;" xml:space="preserve"
    >
<g>
    <path style="fill:#1D3B8B;" d="M258.9,0c0,12,0,23.8,0,35.9c-0.7,0-1.4,0-2.1,0c-9.3,0-18.6-0.2-27.8,0.2
        C216,36.6,205,46.9,203,59.7c-0.3,2.2-0.5,4.4-0.5,6.6c0,48.7,0,97.4,0,146.1c0,11.7,4.8,20.8,14.9,26.8c3.6,2.1,7.5,3.2,11.7,3.4
        c5.4,0.2,10.8,0.2,16.2,0.2c4.5,0,9,0,13.6,0c0,12.1,0,23.9,0,35.9c-0.4,0.1-0.9,0.2-1.3,0.2c-10.6-0.1-21.3,0.1-31.9-0.3
        c-11-0.4-21.5-2.7-31.2-8.2c-13.6-7.8-21.3-19.8-25-34.7c-1.8-7.4-2.7-15-2.7-22.6c0-49.2-0.1-98.3,0-147.5
        c0-11.8,1.7-23.5,6.8-34.3c7.1-15.3,19.3-24.5,35.4-28.7c6.9-1.8,13.9-2.5,21-2.5c9,0,18,0,26.9,0C257.5,0,258.1,0,258.9,0z"/>
    <path style="fill:#1D3B8B;" d="M286.5,86.6c11.9,0,23.7,0,35.6,0c0,64,0,127.9,0,191.9c-11.8,0-23.7,0-35.6,0
        C286.5,214.5,286.5,150.7,286.5,86.6z"/>
    <path style="fill:#1D3B8B;" d="M145.6,153.1c-2.1-13.2-6-25.7-13.2-37.1c-6-9.6-13.8-17.4-24-22.5c-10.3-5.2-21.3-6.8-32.6-6.8
        c-24.6-0.1-49.2,0-73.9,0c-0.6,0-1.3,0-1.9,0c0,64.3,0,128.3,0,192.6c0.5,0,0.9,0,1.2,0c25.5,0,50.9,0,76.4,0
        c5.7,0,11.4-0.9,16.9-2.4c16.1-4.5,27.9-14.5,36.5-28.7c9.9-16.5,14.4-34.6,16-53.6C148.2,180.6,147.7,166.8,145.6,153.1z
         M109.8,194.8c-1.3,12.2-3.9,23.9-10.6,34.4c-6.9,10.9-16.9,16.3-29.8,16.3c-10.6,0-21.3,0-31.9,0c-0.6,0-1.3,0-2,0
        c0-41.8,0-83.6,0-125.5c0.7,0,1.3,0,1.9,0c11.1,0,22.1-0.2,33.2,0.1c4.6,0.1,9.2,0.8,13.7,1.9c9.3,2.3,15.8,8.1,19.5,17
        c3.5,8.4,5.2,17.1,6.1,26.1C110.7,175,110.9,184.9,109.8,194.8z"/>
</g>
</svg>
